<mxfile host="app.diagrams.net" modified="2023-08-18T12:00:20.178Z" agent="Mozilla/5.0 (Windows NT 10.0; Win64; x64) AppleWebKit/537.36 (KHTML, like Gecko) Chrome/114.0.0.0 Safari/537.36" etag="hyMVtj-nowzgDFn14Q6N" version="21.6.8" type="github">
  <diagram name="Page-1" id="6caO500_tgiiB-wGEavK">
    <mxGraphModel dx="819" dy="455" grid="1" gridSize="10" guides="1" tooltips="1" connect="1" arrows="1" fold="1" page="1" pageScale="1" pageWidth="850" pageHeight="1100" math="0" shadow="0">
      <root>
        <mxCell id="0" />
        <mxCell id="1" parent="0" />
        <mxCell id="yEYTAWjpU_WqYXFSrfX1-2" value="" style="rhombus;whiteSpace=wrap;html=1;" vertex="1" parent="1">
          <mxGeometry x="380" y="970" width="80" height="80" as="geometry" />
        </mxCell>
        <mxCell id="yEYTAWjpU_WqYXFSrfX1-3" value="OPEN-API-GENERATOR-DIAGRAM&lt;br&gt;" style="rounded=1;whiteSpace=wrap;html=1;" vertex="1" parent="1">
          <mxGeometry x="320" width="120" height="60" as="geometry" />
        </mxCell>
      </root>
    </mxGraphModel>
  </diagram>
</mxfile>
